<?xml version="1.0" encoding="UTF-8" standalone="no"?>
<!-- Created with Inkscape (http://www.inkscape.org/) -->

<svg
   width="60mm"
   height="39.999996mm"
   viewBox="0 0 60 39.999996"
   version="1.1"
   id="svg5"
   xml:space="preserve"
   xmlns:inkscape="http://www.inkscape.org/namespaces/inkscape"
   xmlns:sodipodi="http://sodipodi.sourceforge.net/DTD/sodipodi-0.dtd"
   xmlns="http://www.w3.org/2000/svg"
   xmlns:svg="http://www.w3.org/2000/svg"><sodipodi:namedview
     id="namedview7"
     pagecolor="#ffffff"
     bordercolor="#999999"
     borderopacity="1"
     inkscape:showpageshadow="0"
     inkscape:pageopacity="0"
     inkscape:pagecheckerboard="0"
     inkscape:deskcolor="#d1d1d1"
     inkscape:document-units="mm"
     showgrid="false" /><defs
     id="defs2"><inkscape:path-effect
       effect="fillet_chamfer"
       id="path-effect1750"
       is_visible="true"
       lpeversion="1"
       nodesatellites_param="F,0,0,1,0,2.6458333,0,1 @ F,0,0,1,0,2.6458333,0,1 @ F,0,0,1,0,2.6458333,0,1 @ F,0,0,1,0,2.6458333,0,1"
       unit="px"
       method="auto"
       mode="F"
       radius="10"
       chamfer_steps="1"
       flexible="false"
       use_knot_distance="true"
       apply_no_radius="true"
       apply_with_radius="true"
       only_selected="false"
       hide_knots="false" /></defs><g
     inkscape:label="Camada 1"
     inkscape:groupmode="layer"
     id="layer1"
     transform="translate(75.984795,-94.095772)"><path
       style="fill:#ffffff;stroke-width:4.67479"
       id="rect437"
       width="60"
       height="40"
       x="-75.984795"
       y="94.095772"
       inkscape:path-effect="#path-effect1750"
       d="m -73.338961,94.095772 h 54.708333 a 2.6458333,2.6458333 45 0 1 2.645833,2.645833 l 0,34.708335 a 2.6458333,2.6458333 135 0 1 -2.645833,2.64583 h -54.708333 a 2.6458333,2.6458333 45 0 1 -2.645834,-2.64583 V 96.741605 a 2.6458333,2.6458333 135 0 1 2.645834,-2.645833 z"
       sodipodi:type="rect" /><g
       id="g275"
       transform="matrix(0.0524751,0,0,0.0524751,-70.983597,105.20854)"><path
         d="M 393.22,316.26 V 122 a 64.71,64.71 0 0 1 64.71,-64.71 l 57.35,0.08 A 64.62,64.62 0 0 1 579.77,122 v 41.34 a 64.72,64.72 0 0 1 -64.71,64.72 H 434"
         fill="none"
         stroke="#939598"
         stroke-linecap="round"
         stroke-linejoin="round"
         stroke-width="6.26"
         id="path182" /><path
         d="m 595.8,57.28 h 24.88 a 26.56,26.56 0 0 1 26.56,26.56 v 145.1"
         fill="none"
         stroke="#939598"
         stroke-linecap="round"
         stroke-linejoin="round"
         stroke-width="6.26"
         id="path184" /><path
         d="M 641.9,34.8 630.62,23.51 a 7.16,7.16 0 0 1 0,-10.13 L 641.9,2.1 a 7.18,7.18 0 0 1 10.15,0 l 11.27,11.28 a 7.16,7.16 0 0 1 0,10.13 L 652,34.8 a 7.17,7.17 0 0 1 -10.14,0"
         fill="#32bcad"
         id="path186" /><path
         d="m 695,57.15 h 24.67 a 47.85,47.85 0 0 1 33.84,14 l 57.71,57.71 a 19.13,19.13 0 0 0 27.07,0 l 57.5,-57.49 a 47.81,47.81 0 0 1 33.83,-14 h 20.06"
         fill="none"
         stroke="#939598"
         stroke-linecap="round"
         stroke-linejoin="round"
         stroke-width="6.26"
         id="path188" /><path
         d="m 695,227.67 h 24.67 a 47.86,47.86 0 0 0 33.84,-14 l 57.71,-57.71 a 19.15,19.15 0 0 1 27.07,0 l 57.5,57.5 a 47.84,47.84 0 0 0 33.83,14 h 20.06"
         fill="none"
         stroke="#939598"
         stroke-linecap="round"
         stroke-linejoin="round"
         stroke-width="6.26"
         id="path190" /><path
         d="M 246.13,264.53 A 46.07,46.07 0 0 1 213.35,251 L 166,203.62 a 9,9 0 0 0 -12.44,0 l -47.51,47.51 A 46.09,46.09 0 0 1 73.27,264.7 H 64 l 60,60 a 48,48 0 0 0 67.81,0 l 60.12,-60.13 z"
         fill="#32bcad"
         id="path192" /><path
         d="m 73.28,97.09 a 46.08,46.08 0 0 1 32.78,13.57 l 47.51,47.52 a 8.81,8.81 0 0 0 12.44,0 l 47.34,-47.34 a 46,46 0 0 1 32.78,-13.58 h 5.7 L 191.71,37.14 a 47.94,47.94 0 0 0 -67.81,0 L 64,97.09 Z"
         fill="#32bcad"
         id="path194" /><path
         d="m 301.56,147 -36.33,-36.33 a 7,7 0 0 1 -2.58,0.52 h -16.52 a 32.62,32.62 0 0 0 -22.93,9.5 L 175.86,168 a 22.74,22.74 0 0 1 -32.13,0 L 96.21,120.51 A 32.62,32.62 0 0 0 73.28,111 H 53 a 7.12,7.12 0 0 1 -2.44,-0.49 L 14,147 a 48,48 0 0 0 0,67.81 l 36.48,36.48 a 6.85,6.85 0 0 1 2.44,-0.49 h 20.36 a 32.63,32.63 0 0 0 22.93,-9.51 l 47.51,-47.51 c 8.59,-8.58 23.56,-8.58 32.14,0 l 47.34,47.33 a 32.62,32.62 0 0 0 22.93,9.5 h 16.52 a 6.9,6.9 0 0 1 2.58,0.52 l 36.33,-36.33 a 47.94,47.94 0 0 0 0,-67.81"
         fill="#32bcad"
         id="path196" /><path
         d="m 442.54,299.75 a 42.13,42.13 0 0 0 -8.89,1.35 v 11.84 a 20.6,20.6 0 0 0 6.92,1.16 c 5.94,0 8.75,-2 8.75,-7.23 0,-4.92 -2.3,-7.12 -6.78,-7.12 m -10.89,22 v -23.43 h 1.63 l 0.17,1 a 46.87,46.87 0 0 1 9.26,-1.49 9.16,9.16 0 0 1 6.07,1.76 c 2,1.66 2.68,4.34 2.68,7.26 0,2.92 -1,5.94 -3.8,7.53 a 14.59,14.59 0 0 1 -6.89,1.53 24.82,24.82 0 0 1 -7.12,-1.09 v 6.89 z"
         fill="#939598"
         id="path198" /><path
         d="m 466.36,299.68 c -5.93,0 -8.58,1.86 -8.58,7.09 0,5.05 2.61,7.33 8.58,7.33 5.97,0 8.55,-1.84 8.55,-7.06 0,-5.05 -2.61,-7.36 -8.55,-7.36 M 474,314.1 c -2,1.42 -4.62,1.83 -7.64,1.83 -3.02,0 -5.73,-0.44 -7.66,-1.83 -2.17,-1.53 -3.06,-4 -3.06,-7.19 0,-3.19 0.89,-5.67 3.06,-7.23 1.93,-1.39 4.58,-1.83 7.66,-1.83 3.08,0 5.67,0.44 7.64,1.83 2.2,1.56 3.05,4.1 3.05,7.19 0,3.09 -0.88,5.7 -3.05,7.23"
         fill="#939598"
         id="path200" /><path
         d="m 502.1,315.45 -6.62,-14.21 h -0.13 l -6.52,14.21 H 487 l -7,-17.13 h 2.2 l 5.87,14.38 h 0.14 l 6.38,-14.38 h 1.83 l 6.54,14.38 h 0.14 l 5.73,-14.38 H 511 l -7.06,17.13 z"
         fill="#939598"
         id="path202" /><path
         d="m 523.75,299.64 c -5.5,0 -7.36,2.45 -7.7,6 h 15.4 c -0.17,-3.9 -2.17,-6 -7.7,-6 m -0.07,16.29 c -3.29,0 -5.43,-0.48 -7.13,-1.9 -2,-1.73 -2.67,-4.24 -2.67,-7.12 0,-2.88 0.91,-5.67 3.19,-7.33 a 11.38,11.38 0 0 1 6.68,-1.73 12,12 0 0 1 6.85,1.66 c 2.47,1.66 2.95,4.58 2.95,7.9 H 516 c 0.07,3.53 1.22,6.65 7.87,6.65 a 51.75,51.75 0 0 0 8.85,-1 v 1.8 a 52.33,52.33 0 0 1 -9,1.05"
         fill="#939598"
         id="path204" /><path
         d="m 539.3,315.45 v -17.13 h 1.62 l 0.17,1 c 3.63,-0.92 5.33,-1.49 8.52,-1.49 h 0.24 v 1.9 h -0.48 c -2.68,0 -4.31,0.37 -8.07,1.35 v 14.35 z"
         fill="#939598"
         id="path206" /><path
         d="m 561.47,299.64 c -5.49,0 -7.36,2.45 -7.7,6 h 15.4 c -0.17,-3.9 -2.17,-6 -7.7,-6 m -0.07,16.29 c -3.29,0 -5.42,-0.48 -7.12,-1.9 -2,-1.73 -2.68,-4.24 -2.68,-7.12 0,-2.88 0.92,-5.67 3.19,-7.33 a 11.42,11.42 0 0 1 6.68,-1.73 12,12 0 0 1 6.85,1.66 c 2.48,1.66 3,4.58 3,7.9 H 553.7 c 0.07,3.53 1.22,6.65 7.87,6.65 a 51.76,51.76 0 0 0 8.86,-1 v 1.8 a 52.44,52.44 0 0 1 -9,1.05"
         fill="#939598"
         id="path208" /><path
         d="m 593.2,300.83 a 20.6,20.6 0 0 0 -6.92,-1.15 c -5.94,0 -8.75,2 -8.75,7.23 0,4.95 2.31,7.12 6.78,7.12 a 44.06,44.06 0 0 0 8.89,-1.33 z m 0.38,14.62 -0.18,-1 a 46.06,46.06 0 0 1 -9.26,1.5 9,9 0 0 1 -6.07,-1.77 c -2,-1.66 -2.68,-4.34 -2.68,-7.25 0,-3.06 1,-5.94 3.8,-7.5 a 14.35,14.35 0 0 1 6.92,-1.56 26.18,26.18 0 0 1 7.09,1.08 v -7.85 h 2 v 24.35 z"
         fill="#939598"
         id="path210" /><path
         d="m 624.55,299.75 a 42.13,42.13 0 0 0 -8.89,1.35 v 11.81 a 20,20 0 0 0 6.92,1.19 c 5.94,0 8.75,-2 8.75,-7.23 0,-4.92 -2.3,-7.12 -6.78,-7.12 m 5.12,14.65 a 14.57,14.57 0 0 1 -6.88,1.53 24.35,24.35 0 0 1 -7.67,-1.29 l -0.1,0.81 h -1.36 V 291.1 h 2 v 8.17 a 48.34,48.34 0 0 1 9.06,-1.42 9.16,9.16 0 0 1 6.07,1.76 c 2,1.66 2.68,4.34 2.68,7.26 0,2.92 -1,5.94 -3.8,7.53"
         fill="#939598"
         id="path212" /><path
         d="m 636.13,322 v -1.86 c 1,0.1 1.9,0.17 2.54,0.17 2.48,0 4,-0.72 5.36,-3.53 l 0.65,-1.36 -9,-17.13 H 638 l 7.67,14.79 h 0.13 l 7.29,-14.79 h 2.28 l -9.64,19.24 c -1.76,3.49 -3.66,4.64 -7.16,4.64 A 19.48,19.48 0 0 1 636.1,322"
         fill="#939598"
         id="path214" /><path
         d="m 683,305.68 h -6.64 v 6 H 683 c 4.58,0 6.31,-0.51 6.31,-3 0,-2.68 -2.38,-3 -6.35,-3 m -1.2,-9.68 h -5.42 v 6.1 h 5.46 c 4.51,0 6.31,-0.54 6.31,-3.08 0,-2.72 -2.28,-3 -6.35,-3 m 10.32,17.88 c -2.45,1.56 -5.4,1.62 -10.79,1.62 h -10.15 v -23.3 h 9.91 c 4.65,0 7.5,0.06 9.87,1.49 a 4.91,4.91 0 0 1 2.38,4.61 c 0,2.44 -1,4.07 -3.67,5.16 v 0.13 c 3,0.68 4.92,2.21 4.92,5.5 a 5,5 0 0 1 -2.47,4.72"
         fill="#939598"
         id="path216" /><path
         d="m 714.84,308.26 c -2,-0.17 -4,-0.27 -6.17,-0.27 -3.49,0 -4.72,0.71 -4.72,2.31 0,1.6 1,2.3 3.7,2.3 a 34.52,34.52 0 0 0 7.19,-1 z m 1,7.19 -0.13,-1 a 41.11,41.11 0 0 1 -9.3,1.5 8.88,8.88 0 0 1 -5.19,-1.26 5.3,5.3 0 0 1 1,-8.78 c 1.8,-0.85 4.21,-0.92 6.42,-0.92 1.79,0 4.2,0.1 6.2,0.24 v -0.31 c 0,-2.68 -1.76,-3.56 -6.58,-3.56 -1.86,0 -4.14,0.1 -6.31,0.3 v -3.46 c 2.41,-0.2 5.13,-0.33 7.37,-0.33 3,0 6.07,0.23 8,1.59 1.93,1.36 2.34,3.33 2.34,5.87 v 10.14 z"
         fill="#939598"
         id="path218" /><path
         d="M 742,315.45 V 306 c 0,-3.12 -1.59,-4.24 -4.44,-4.24 a 32.63,32.63 0 0 0 -7,1.08 v 12.62 h -4.78 v -17.14 h 3.9 l 0.17,1.09 a 39.6,39.6 0 0 1 9.16,-1.56 8.45,8.45 0 0 1 5.87,1.76 c 1.35,1.22 1.86,2.92 1.86,5.36 v 10.48 z"
         fill="#939598"
         id="path220" /><path
         d="m 760.26,315.93 c -2.21,0 -4.62,-0.31 -6.38,-1.8 -2.1,-1.7 -2.71,-4.37 -2.71,-7.26 0,-2.71 0.88,-5.67 3.49,-7.33 2.14,-1.39 4.78,-1.69 7.53,-1.69 2,0 3.9,0.13 6,0.33 v 3.67 c -1.73,-0.17 -3.8,-0.3 -5.46,-0.3 -4.55,0 -6.69,1.42 -6.69,5.36 0,3.69 1.6,5.29 5.33,5.29 a 40.69,40.69 0 0 0 7.19,-0.88 v 3.52 a 42.64,42.64 0 0 1 -8.34,1.09"
         fill="#939598"
         id="path222" /><path
         d="m 782.73,301.44 c -4.55,0 -6.55,1.43 -6.55,5.33 0,3.9 2,5.56 6.55,5.56 4.55,0 6.48,-1.39 6.48,-5.29 0,-3.9 -1.93,-5.6 -6.48,-5.6 m 8.21,12.69 c -2.1,1.42 -4.85,1.8 -8.21,1.8 -3.36,0 -6.17,-0.41 -8.24,-1.8 -2.38,-1.56 -3.23,-4.14 -3.23,-7.22 0,-3.08 0.85,-5.71 3.23,-7.27 2.07,-1.39 4.81,-1.79 8.24,-1.79 3.43,0 6.11,0.4 8.21,1.79 2.37,1.56 3.19,4.18 3.19,7.23 0,3.05 -0.85,5.7 -3.19,7.26"
         fill="#939598"
         id="path224" /><path
         d="m 821.74,315.93 c -2.88,0 -6,-0.48 -8.34,-2.41 -2.78,-2.31 -3.63,-5.87 -3.63,-9.7 0,-3.43 1.09,-7.5 4.71,-9.87 2.82,-1.83 6.31,-2.21 9.84,-2.21 2.58,0 5.23,0.17 8.11,0.41 v 4.17 c -2.47,-0.2 -5.53,-0.37 -7.9,-0.37 -6.62,0 -9.43,2.51 -9.43,7.87 0,5.36 2.61,7.9 7.49,7.9 a 52.84,52.84 0 0 0 10.35,-1.39 v 4.14 a 58,58 0 0 1 -11.2,1.46"
         fill="#939598"
         id="path226" /><path
         d="m 847,300.9 c -4,0 -5.5,1.43 -5.81,4 h 11.54 c -0.14,-2.78 -1.77,-4 -5.73,-4 m -0.72,15 c -2.81,0 -5.36,-0.34 -7.26,-1.9 -1.9,-1.56 -2.75,-4.24 -2.75,-7.16 0,-2.61 0.85,-5.53 3.23,-7.23 2.1,-1.49 4.78,-1.79 7.5,-1.79 2.44,0 5.32,0.27 7.42,1.73 2.75,1.93 3,4.92 3,8.44 h -16.26 c 0.1,2.62 1.49,4.31 6.31,4.31 a 61.81,61.81 0 0 0 9.13,-0.88 v 3.36 a 65.31,65.31 0 0 1 -10.32,1.12"
         fill="#939598"
         id="path228" /><path
         d="M 878.72,315.45 V 306 c 0,-3.12 -1.59,-4.24 -4.44,-4.24 a 32.63,32.63 0 0 0 -7,1.08 v 12.62 h -4.78 v -17.14 h 3.9 l 0.17,1.09 a 39.6,39.6 0 0 1 9.16,-1.56 8.45,8.45 0 0 1 5.87,1.76 c 1.35,1.22 1.86,2.92 1.86,5.36 v 10.48 z"
         fill="#939598"
         id="path230" /><path
         d="m 897.09,315.93 c -2.31,0 -4.41,-0.65 -5.56,-2.45 a 8.85,8.85 0 0 1 -1.26,-5.18 v -6.42 h -3.46 v -3.56 h 3.46 l 0.51,-5.19 H 895 v 5.19 h 6.75 v 3.56 H 895 v 5.5 a 8.26,8.26 0 0 0 0.47,3.26 c 0.51,1.15 1.63,1.59 3.13,1.59 a 21.3,21.3 0 0 0 3.42,-0.34 v 3.43 a 27.57,27.57 0 0 1 -4.95,0.61"
         fill="#939598"
         id="path232" /><path
         d="m 906.44,315.45 v -17.13 h 3.9 l 0.17,1.09 a 29.76,29.76 0 0 1 8.48,-1.56 5.23,5.23 0 0 1 0.61,0 V 302 c -0.54,0 -1.19,0 -1.66,0 a 26.94,26.94 0 0 0 -6.72,0.88 v 12.65 z"
         fill="#939598"
         id="path234" /><path
         d="m 937,308.26 c -2,-0.17 -4,-0.27 -6.18,-0.27 -3.49,0 -4.71,0.71 -4.71,2.31 0,1.6 1,2.3 3.69,2.3 a 34.61,34.61 0 0 0 7.2,-1 z m 1,7.19 -0.14,-1 a 41.11,41.11 0 0 1 -9.3,1.5 8.88,8.88 0 0 1 -5.19,-1.26 4.87,4.87 0 0 1 -1.9,-4.14 4.81,4.81 0 0 1 2.89,-4.64 c 1.8,-0.85 4.2,-0.92 6.41,-0.92 1.8,0 4.21,0.1 6.21,0.24 v -0.31 c 0,-2.68 -1.77,-3.56 -6.58,-3.56 -1.87,0 -4.14,0.1 -6.31,0.3 v -3.46 c 2.41,-0.2 5.12,-0.33 7.36,-0.33 3,0 6.07,0.23 8,1.59 1.93,1.36 2.34,3.33 2.34,5.87 v 10.14 z"
         fill="#939598"
         id="path236" /><path
         d="m 947.92,291.1 h 4.79 v 24.35 h -4.79 z"
         fill="#939598"
         id="path238" /></g></g></svg>
